<?xml version="1.0" encoding="utf-8"?>
<!-- Generator: Adobe Illustrator 15.0.0, SVG Export Plug-In . SVG Version: 6.00 Build 0)  -->
<!DOCTYPE svg PUBLIC "-//W3C//DTD SVG 1.1//EN" "http://www.w3.org/Graphics/SVG/1.1/DTD/svg11.dtd">
<svg version="1.1" xmlns="http://www.w3.org/2000/svg" xmlns:xlink="http://www.w3.org/1999/xlink" x="0px" y="0px" width="800px"
	 height="800px" viewBox="0 0 800 800" enable-background="new 0 0 800 800" xml:space="preserve">
<g id="Layer_1">
	<path fill="#323232" d="M400,16.142C188,16.142,16.142,188,16.142,400C16.142,611.999,188,783.858,400,783.858
		c211.999,0,383.858-171.859,383.858-383.858C783.858,188,611.999,16.142,400,16.142z M712.728,443.571
		c-3.533,0.179-7.05,0.447-10.496,0.677c-10.948,0.729-21.894,1.65-32.815,2.704c-2.613,0.252-3.09,3.99-0.189,3.99
		c7.578,0,15.13-0.508,22.68-1.072c6.02,1.175,12.708,2.339,19.411,2.739c-1.537,9.176-3.442,18.226-5.756,27.113
		c-8.24,0.675-16.457,1.673-24.608,2.913c-2.872,0.437-2.439,3.867,0.446,3.627c7.676-0.641,15.325-1.456,22.981-2.174
		c-25.214,91.469-90.548,166.294-175.882,204.371c-5.942,0.407-11.888,0.786-17.831,1.142c-11.623,0.693-23.546,0.669-35.093,2.119
		c-1.568,0.196-2.356,1.611-2.037,2.675c-5.723,0.405-11.444,0.804-17.158,1.149c-3.131,0.189-2.592,4.052,0.479,3.891
		c17.188-0.901,34.388-2.158,51.592-2.845c-33.82,12.371-70.344,19.133-108.45,19.133c-96.667,0-183.171-43.459-241.086-111.888
		c4.72,0.084,9.458,0.114,14.229,0.145c17.377,0.108,34.554,1.144,51.79,3.281c2.346,0.291,4.024-2.662,1.417-3.676
		c-15.796-6.131-33.211-6.507-49.925-6.445c-7.557,0.028-15.168,0.216-22.785,0.297c-11.239-14.006-21.301-28.993-30.051-44.809
		c10.003-0.984,19.999-2.072,29.995-3.104c2.789-0.287,2.324-3.681-0.427-3.48c-10.553,0.77-21.081,1.818-31.613,2.824
		c-2.247-4.194-4.404-8.442-6.465-12.746c4.382-0.199,8.758-0.64,13.118-1.094c10.045-1.049,20.028-2.597,30.03-3.985
		c10.183-1.414,20.389-2.64,30.65-3.292c10.035-0.638,20.061,0.285,30.071-0.376c2.085-0.138,3.35-2.135,2.766-3.646
		c0.325-0.014,0.649-0.026,0.974-0.041c2.439-0.114,2.772-3.515,0.173-3.637c-6.847-0.323-13.732-0.358-20.602-0.069
		c-0.297-0.746-1.037-1.368-2.288-1.541c-9.561-1.324-19.436-0.745-29.063-0.691c-10.167,0.056-20.335,0.255-30.499,0.507
		c-9.151,0.228-18.255,0.475-27.356,1.468c-1.684,0.184-3.369,0.348-5.055,0.495c-11.989-29.078-19.734-60.344-22.522-93.026
		c3.506-0.019,7.032,0.032,10.528-0.197c2.319-0.152,2.637-3.297,0.165-3.46c-3.598-0.239-7.229-0.157-10.834-0.192
		c-0.055-0.001-0.112,0.005-0.167,0.007c-0.129-1.763-0.255-3.525-0.355-5.295c9.244-1.064,18.544-1.121,27.825-1.95
		c1.321-0.118,1.886-0.907,1.838-1.698c2.25-0.198,4.5-0.396,6.752-0.564c20.035-1.496,40.177-0.955,60.193-2.462
		c1.896-0.144,2.492-2.173,1.395-3.113c0.714-0.134,1.403-0.347,2.031-0.709c0.158-0.091,0.294-0.198,0.414-0.315
		c2.969,0.188,5.942,0.384,8.926,0.59c2.396,0.166,4.645-3.262,1.549-4.019c-18.967-4.64-39.43-4.159-59.005-3.047
		c-3.489,0.093-6.905,0.361-10.038,0.626c-7.806,0.542-15.593,1.287-23.369,2.148c-1.825-0.024-3.673,0.069-5.534,0.25
		c1.617-0.364,3.177-0.736,4.626-1.077c2.194-0.517,1.738-2.441,0.352-3.271c2.228-0.231,3.183-3,0.433-3.389
		c-6.042-0.855-12.598-1.173-18.883-0.684c0.009-0.607,0.028-1.212,0.041-1.818c1.78,0.013,3.56,0.028,5.339,0.008
		c0.925-0.011,2.052-0.325,2.279-1.378c0.202-0.933-0.722-1.727-1.604-1.737c-1.981-0.023-3.963-0.001-5.945,0.012
		c0.775-26.045,4.707-51.295,11.42-75.388c15.992-0.09,32.113,2.015,48.165-0.466c3.061-0.473,2.597-4.101-0.474-3.862
		c-13.789,1.075-27.64-0.214-41.436-0.476c-1.573-0.03-3.193-0.062-4.842-0.082c22.721-76.701,73.795-141.209,141.072-181.406
		c0.29,0.49,0.891,0.835,1.9,0.832c12.387-0.042,25.011-0.593,37.172-3.082c3.006-0.616,2.662-4.197-0.478-3.892
		c-10.885,1.058-21.624,2.353-32.546,2.617C290.308,99.177,343.41,84.276,400,84.276c110.072,0,206.964,56.343,263.468,141.747
		c-8.285-0.082-16.563,0.133-24.792,0.906c-3.603,0.338-3.023,4.844,0.553,4.509c4.435-0.416,8.867-0.608,13.298-0.674
		c0.31,0.218,0.755,0.355,1.359,0.361c4.323,0.041,8.694,0.208,13.063,0.275c30.668,48.461,48.525,105.836,48.76,167.375
		c-2.729,0.197-5.468,0.449-8.213,0.693c-13.81,1.229-27.804,1.309-41.652,2.015c-27.926,1.422-55.985,2.714-83.741,6.226
		c-3.027,0.384-2.515,3.948,0.463,3.775c5.988-0.35,11.975-0.729,17.96-1.121c0.159,0.361,0.497,0.663,1.072,0.803
		c9.737,2.369,20.189,1.851,30.139,1.689c11.523-0.187,23.033-0.863,34.552-1.237c12-0.39,24.017-0.443,35.99,0.568
		c4.455,0.377,8.802,1.143,13.116,2.031C714.954,424.128,714.059,433.919,712.728,443.571z M122.827,527.93
		c4.748-0.568,9.538-0.857,14.323-1.01c-0.924,0.133-1.847,0.271-2.771,0.402C130.556,527.683,126.692,527.903,122.827,527.93z
		 M94.135,399.73c0.001-0.08,0.002-0.159,0.003-0.238c0.659-0.005,1.318-0.009,1.977-0.013
		C95.454,399.557,94.794,399.645,94.135,399.73z"/>
	<path fill="#323232" d="M436.295,355.164l-34.304-15.093c-24.826-11.196-55.174-24.813-70.712-47.707
		c-3.685-6.825-5.533-14.122-5.533-21.897c0-14.917,6.31-28.229,18.934-39.935c12.62-11.705,28.456-17.557,47.509-17.557
		c16.981,0,33.447,4.362,49.401,13.082c15.949,8.725,28.229,20.43,36.837,35.115c8.606,14.69,14.513,34.544,17.729,59.558h10.329
		c0,0,0.873-38.286,12.389-71.873c6.752-19.69,23.076-43.255,23.076-43.255c-27.443-50.769-76.154-80.27-133.784-80.27
		c-76.84,0-144.761,51.455-144.761,131.725c0,37.63,13.454,64.108,34.599,84.654c6.505,9.345,14.891,18.073,25.161,26.183
		c13.652,10.791,36.546,25.191,68.68,43.206c32.13,18.02,51.753,29.778,58.869,35.287c10.786,8.036,18.704,16.756,23.754,26.164
		c5.046,9.413,7.574,18.708,7.574,27.885c0,16.757-6.713,31.215-20.14,43.377c-13.426,12.169-31.618,18.247-54.565,18.247
		c-19.967,0-38.332-4.417-55.082-13.255c-16.756-8.832-29.209-19.968-37.353-33.394c-8.149-13.426-14.631-33.565-19.451-60.418
		h-9.983c0,0-4.106,19.381-19.46,41.932c-14.492,21.285-29.359,29.758-29.359,29.758c16.466,80.271,78.212,133.783,161.227,133.783
		c89.875,0,162.599-69.293,162.599-159.854C560.474,418.282,503.529,384.665,436.295,355.164z M480.196,212.058
		c-0.955,0.145-1.943,0.228-2.974,0.228c-4.362,0-11.705-2.292-22.033-6.885c-22.265-9.865-43.377-14.803-63.345-14.803
		c-14.156,0-27.195,1.896-39.122,5.682c14.947-11.102,33.916-17.436,54.071-17.436C440.138,178.844,462.398,190.723,480.196,212.058
		z M396.503,606.952c-35.668,0-65.117-17.808-83.633-44.53c5.096,0.198,16.315,3.112,33.704,8.759
		c18.015,5.853,29.892,9.236,35.631,10.156c9.639,1.604,19.967,2.41,30.984,2.41c27.15,0,50.429-6.343,69.834-19.022
		C463.184,590.784,430.76,606.952,396.503,606.952z"/>
</g>
<g id="Layer_2">
	<path fill="#323232" d="M208.431,366.67c-15.339-0.282-30.687-0.182-46.028-0.163c-2.64,0.003-3.827,3.644-0.791,3.647
		c15.553,0.021,31.111,0.113,46.662-0.172C210.499,369.943,210.797,366.714,208.431,366.67z"/>
	<path fill="#323232" d="M600.914,594.166c-2.229-0.045-4.459-0.089-6.688-0.133c-1.028-0.021-2.291,0.385-2.539,1.534
		c-0.313,1.44,1.276,1.947,2.374,1.926c2.234-0.044,4.467-0.088,6.701-0.132C602.907,597.318,603.194,594.211,600.914,594.166z"/>
	<path fill="#323232" d="M562.919,658.265c-7.764,0.613-15.509,1.524-23.305,1.569c-3.115,0.019-4.498,4.333-0.932,4.298
		c8.317-0.081,16.483-0.866,24.679-2.269C566.194,661.378,565.79,658.039,562.919,658.265z"/>
	<path fill="#323232" d="M632.582,299.554h-2.879c-0.95,0-2.111,0.343-2.344,1.417c-0.206,0.952,0.74,1.787,1.648,1.787h2.879
		c0.95,0,2.111-0.342,2.344-1.417C634.437,300.39,633.49,299.554,632.582,299.554z"/>
	<path fill="#323232" d="M193.452,270.896h-40.305c-4.914,0-7.109,6.781-1.47,6.781h40.305
		C196.895,277.677,199.09,270.896,193.452,270.896z"/>
	<path fill="#323232" d="M365.232,461.537c-10.08,1.153-20.029-0.186-30.054-1.161c-2.943-0.286-4.168,3.633-0.868,4.002
		c10.516,1.179,20.86,2.943,31.363,0.758C368.44,464.56,368.138,461.205,365.232,461.537z"/>
	<path fill="#323232" d="M96.12,390.489h-0.639c-0.897,0-1.995,0.324-2.214,1.339c-0.194,0.899,0.7,1.688,1.558,1.688h0.64
		c0.897,0,1.995-0.324,2.214-1.339C97.873,391.278,96.979,390.489,96.12,390.489z"/>
	<path fill="#323232" d="M109.54,397.963c-0.404-0.023-0.814-0.003-1.219-0.003c-1.021,0-2.268,0.367-2.517,1.522
		c-0.221,1.022,0.795,1.918,1.771,1.918c0.598,0,1.205,0.021,1.803-0.014c0.828-0.049,1.748-0.669,1.929-1.509
		C111.536,398.817,110.505,398.021,109.54,397.963z"/>
	<path fill="#323232" d="M223.114,364.537c-0.643-0.559-1.317-0.75-2.137-0.75c-1.178,0-2.618,0.424-2.906,1.757
		c-0.255,1.181,0.918,2.216,2.045,2.216c0.832,0,1.742,0.073,2.445-0.468c0.458-0.352,0.855-0.7,0.983-1.294
		C223.65,365.507,223.507,364.878,223.114,364.537z"/>
	<path fill="#323232" d="M378.304,464.48c-2.515,0-3.638,3.47-0.752,3.47C380.067,467.95,381.19,464.48,378.304,464.48z"/>
	<path fill="#323232" d="M397.933,464.68c-0.126-1.024-1.368-1.57-2.294-1.396c-1.7,0.322-3.395,0.513-5.123,0.595
		c-0.822,0.04-1.738,0.671-1.917,1.5c-0.227,1.047,0.794,1.856,1.756,1.902c2.16,0.102,4.233,0.104,6.239-0.82
		C397.312,466.13,398.043,465.581,397.933,464.68z"/>
	<path fill="#323232" d="M198.281,533.248c-1.056-0.678-2.426-0.902-3.638-1.166c-1.454-0.317-2.89-0.416-4.374-0.388
		c-2.298,0.044-2.575,3.258-0.162,3.402c2.202,0.131,4.226,1.141,6.388,1.323C198.208,536.564,200.265,534.521,198.281,533.248z"/>
</g>
</svg>
