<?xml version="1.0" encoding="utf-8"?>
<!-- Generator: Adobe Illustrator 15.0.0, SVG Export Plug-In . SVG Version: 6.00 Build 0)  -->
<!DOCTYPE svg PUBLIC "-//W3C//DTD SVG 1.1//EN" "http://www.w3.org/Graphics/SVG/1.1/DTD/svg11.dtd">
<svg version="1.1" xmlns="http://www.w3.org/2000/svg" xmlns:xlink="http://www.w3.org/1999/xlink" x="0px" y="0px" width="800px"
	 height="516px" viewBox="0 0 800 516" enable-background="new 0 0 800 516" xml:space="preserve">
<g id="Layer_1">
	<polygon fill="#6D0C18" points="400,28.281 21.585,316.419 21.585,396.015 103.622,489.686 400,270.146 696.378,489.686 
		778.415,396.763 778.415,317.168 778.028,316.88 	"/>
	<path fill="#EEEEEE" d="M400,28.281L778.028,316.88l0.387,0.288v79.595l-82.037,92.923L400,270.146l-296.378,219.54l-82.037-93.671
		v-79.596L400,28.281 M400.011,10.684L13.107,305.285l-5.516,4.199v6.935v79.596v5.262l3.466,3.959l82.037,93.671l8.496,9.7
		l10.362-7.676L400,287.561l288.049,213.37l10.32,7.645l8.501-9.628l82.035-92.923l3.504-3.969v-5.293v-79.595v-7.021l-5.629-4.197
		l-0.325-0.241L400.011,10.684L400.011,10.684z"/>
	<polygon fill="#EEEEEE" points="400,34.958 27.633,318.491 104.296,409.758 400,190.718 695.703,409.758 772.368,318.491 	"/>
</g>
<g id="Layer_2">
</g>
</svg>
